<svg xmlns="http://www.w3.org/2000/svg" version="1.1" x="0" y="0" viewBox="0 0 396 144">
  <path d="M379.409 92.813q-4.324 19.275-16.196 29.022-11.873 9.747-31.221 9.747-12.751 0-22.755-3.994t-16.929-11.579q-6.926-7.586-10.59-18.505-3.665-10.92-3.665-24.771 0-12.679 3.445-22.975 3.444-10.297 10.553-18.872 7.475-9.087 17.589-13.778 10.114-4.69 22.499-4.69 9.014 0 16.599 2.785 7.586 2.785 13.485 8.061 5.9 5.277 9.857 12.972 3.958 7.695 5.643 17.442l-29.974 2.272q-1.466-10.04-5.313-14.62-3.848-4.581-11.396-4.581-10.114 0-14.731 8.685-4.617 8.684-4.617 26.566 0 36.423 21.18 36.423 8.428 0 14.181-5.203 5.753-5.203 7.878-15.17z" fill="#0B5E00"/>
  <path d="M332.139 9.418c6.353 0 12.236.987 17.633 2.969 5.411 1.986 10.234 4.87 14.451 8.641 4.213 3.769 7.723 8.387 10.525 13.836 2.783 5.411 4.757 11.515 5.931 18.303l.563 3.253-3.292.25-29.974 2.272-2.791.211-.405-2.77c-.903-6.191-2.494-10.567-4.641-13.124-1.953-2.325-4.902-3.51-9.099-3.51-5.643 0-9.529 2.291-12.082 7.093-2.805 5.275-4.266 13.684-4.266 25.158 0 22.844 6.152 33.423 18.18 33.423 4.891 0 8.898-1.47 12.168-4.428 3.33-3.011 5.664-7.505 6.957-13.571l.615-2.882 2.892.563 24.478 4.764 3.03.589-.676 3.012c-3.02 13.464-8.749 23.729-17.22 30.684-8.489 6.969-19.569 10.428-33.124 10.428-8.867 0-16.828-1.397-23.867-4.208-7.085-2.829-13.106-6.947-18.033-12.343-4.907-5.374-8.646-11.908-11.218-19.573-2.552-7.603-3.821-16.18-3.821-25.725 0-8.764 1.197-16.743 3.6-23.927 2.415-7.218 6.115-13.835 11.081-19.826 5.266-6.401 11.487-11.274 18.644-14.593 7.149-3.316 15.079-4.969 23.761-4.969zm0 3q-12.385 0-22.499 4.69-10.114 4.691-17.589 13.778-7.109 8.575-10.553 18.871-3.445 10.297-3.445 22.976 0 13.851 3.665 24.771 3.664 10.919 10.59 18.505 6.925 7.585 16.929 11.579 10.004 3.994 22.755 3.994 19.348 0 31.22-9.747 11.873-9.747 16.197-29.022l-24.478-4.763q-2.125 9.967-7.878 15.17-5.753 5.203-14.181 5.203-21.18 0-21.18-36.423 0-17.882 4.617-26.567 4.617-8.684 14.731-8.684 7.548 0 11.396 4.58 3.847 4.581 5.313 14.621l29.974-2.272q-1.685-9.747-5.643-17.442-3.957-7.695-9.857-12.972-5.899-5.276-13.485-8.061-7.585-2.785-16.599-2.785z" fill="#FFF"/>
  <path d="M293.256 92.813q-4.324 19.275-16.196 29.022-11.872 9.747-31.22 9.747-12.752 0-22.756-3.994-10.003-3.994-16.929-11.579-6.925-7.586-10.59-18.505-3.664-10.92-3.664-24.771 0-12.679 3.444-22.975 3.445-10.297 10.554-18.872 7.475-9.087 17.588-13.778 10.114-4.69 22.499-4.69 9.015 0 16.6 2.785 7.585 2.785 13.485 8.061 5.899 5.277 9.857 12.972 3.957 7.695 5.643 17.442l-29.974 2.272q-1.466-10.04-5.314-14.62-3.847-4.581-11.396-4.581-10.113 0-14.73 8.685Q225.54 54.118 225.54 72q0 36.423 21.179 36.423 8.428 0 14.181-5.203 5.753-5.203 7.879-15.17z" fill="#0B5E00"/>
  <path d="M245.986 9.418c6.353 0 12.236.987 17.634 2.969 5.411 1.986 10.234 4.87 14.451 8.641 4.213 3.769 7.722 8.387 10.524 13.836 2.783 5.411 4.758 11.515 5.932 18.303l.562 3.253-3.292.25-29.974 2.272-2.791.211-.404-2.77c-.904-6.191-2.494-10.567-4.642-13.124-1.953-2.325-4.901-3.51-9.099-3.51-5.642 0-9.529 2.291-12.082 7.093-2.804 5.275-4.265 13.684-4.265 25.158 0 22.844 6.151 33.423 18.179 33.423 4.892 0 8.898-1.47 12.169-4.428 3.329-3.011 5.663-7.505 6.957-13.571l.614-2.882 2.893.563 24.477 4.764 3.03.589-.675 3.012c-3.021 13.464-8.749 23.729-17.22 30.684-8.489 6.969-19.569 10.428-33.124 10.428-8.867 0-16.829-1.397-23.868-4.208-7.085-2.829-13.106-6.947-18.032-12.343-4.908-5.374-8.647-11.908-11.219-19.573-2.551-7.603-3.82-16.18-3.82-25.725 0-8.764 1.196-16.743 3.599-23.927 2.415-7.218 6.115-13.835 11.082-19.826 5.265-6.401 11.487-11.274 18.643-14.593 7.149-3.316 15.08-4.969 23.761-4.969zm0 3q-12.385 0-22.499 4.69-10.113 4.691-17.588 13.778-7.109 8.575-10.554 18.871-3.444 10.297-3.444 22.976 0 13.851 3.664 24.771 3.665 10.919 10.59 18.505 6.926 7.585 16.929 11.579 10.004 3.994 22.756 3.994 19.348 0 31.22-9.747t16.196-29.022l-24.477-4.763q-2.126 9.967-7.879 15.17-5.753 5.203-14.181 5.203-21.179 0-21.179-36.423 0-17.882 4.616-26.567 4.618-8.684 14.731-8.684 7.549 0 11.396 4.58 3.848 4.581 5.313 14.621l29.975-2.272q-1.686-9.747-5.643-17.442-3.958-7.695-9.857-12.972-5.9-5.276-13.485-8.061-7.585-2.785-16.6-2.785z" fill="#FFF"/>
  <path d="M207.104 92.813q-4.324 19.275-16.196 29.022-11.873 9.747-31.221 9.747-12.751 0-22.755-3.994t-16.929-11.579q-6.926-7.586-10.59-18.505-3.665-10.92-3.665-24.771 0-12.679 3.445-22.975 3.444-10.297 10.553-18.872 7.475-9.087 17.589-13.778 10.114-4.69 22.499-4.69 9.014 0 16.599 2.785 7.586 2.785 13.485 8.061 5.9 5.277 9.857 12.972 3.958 7.695 5.643 17.442l-29.974 2.272q-1.466-10.04-5.313-14.62-3.848-4.581-11.396-4.581-10.114 0-14.731 8.685-4.617 8.684-4.617 26.566 0 36.423 21.18 36.423 8.428 0 14.181-5.203 5.753-5.203 7.878-15.17z" fill="#0B5E00"/>
  <path d="M159.834 9.418c6.353 0 12.236.987 17.633 2.969 5.411 1.986 10.234 4.87 14.451 8.641 4.213 3.769 7.723 8.387 10.525 13.836 2.783 5.411 4.757 11.515 5.931 18.303l.563 3.253-3.292.25-29.974 2.272-2.791.211-.405-2.77c-.903-6.191-2.494-10.567-4.641-13.124-1.953-2.325-4.902-3.51-9.099-3.51-5.643 0-9.529 2.291-12.082 7.093-2.805 5.275-4.266 13.684-4.266 25.158 0 22.844 6.152 33.423 18.18 33.423 4.891 0 8.898-1.47 12.168-4.428 3.33-3.011 5.664-7.505 6.957-13.571l.615-2.882 2.892.563 24.478 4.764 3.03.589-.676 3.012c-3.02 13.464-8.749 23.729-17.22 30.684-8.489 6.969-19.569 10.428-33.124 10.428-8.867 0-16.828-1.397-23.868-4.208-7.084-2.829-13.105-6.947-18.032-12.343-4.907-5.374-8.646-11.908-11.218-19.573-2.552-7.603-3.821-16.18-3.821-25.725 0-8.764 1.197-16.743 3.6-23.927 2.414-7.218 6.115-13.835 11.081-19.826 5.266-6.401 11.487-11.274 18.644-14.593 7.149-3.316 15.079-4.969 23.761-4.969zm0 3q-12.385 0-22.499 4.69-10.114 4.691-17.589 13.778-7.109 8.575-10.553 18.871-3.445 10.297-3.445 22.976 0 13.851 3.665 24.771 3.664 10.919 10.59 18.505 6.925 7.585 16.929 11.579 10.004 3.994 22.755 3.994 19.348 0 31.221-9.747 11.872-9.747 16.196-29.022l-24.478-4.763q-2.125 9.967-7.878 15.17-5.753 5.203-14.181 5.203-21.18 0-21.18-36.423 0-17.882 4.617-26.567 4.617-8.684 14.731-8.684 7.548 0 11.396 4.58 3.847 4.581 5.313 14.621l29.974-2.272q-1.685-9.747-5.643-17.442-3.957-7.695-9.857-12.972-5.899-5.276-13.485-8.061-7.585-2.785-16.599-2.785z" fill="#FFF"/>
  <path d="M16.591 14.47h33.785l24.771 74.019 25.65-74.019h26.897l-40.381 114.4H55.799z" fill="#0B5E00"/>
  <path d="M52.536 11.47l.685 2.048 21.976 65.666 22.766-65.696.699-2.018h33.272l-1.411 3.999-40.381 114.4-.707 2.001H53.656l-.695-2.027-39.208-114.4-1.361-3.973h40.144zm-2.16 3H16.591l39.208 114.4h31.514l40.381-114.4h-26.897l-25.65 74.019L50.376 14.47z" fill="#FFF"/>
</svg>
